<svg xmlns="http://www.w3.org/2000/svg" width="300" height="232" fill="none"><path d="m243.181 203.29-190.204.25c.539-33.953 23.97-66.651 59.252-89.703 20.128-13.152 63.713 20.724 92.941 18.26 24.976 1.192 38.226 39.389 38.011 71.194z" style="fill:#e3dbdb;stroke-width:16.4348"/><path d="M243.753 160.19c5.774-8.74 12.88-15.615 14.248-30.524l.39-1.104 2.09-13.84c2.78-19.31-12.801-28.127-21.943-40.624l-6.09 22.661c-1.155 15.108 2.746 16.998 13.16 21.818-9.63 7.163-10.446 19.276-9.773 36.743-9.447-4.556-6.882-5.803-13.617-3.534-2.375.8-5.907 4.678-4.564 7.094.907 1.63 1.503.443 2.45-.72.949-1.165 2.247-2.306 4.556-.587 6.282 2.831 5.555 1.978 6.942 4.45 2.304 4.109 2.114 5.904.806 11.081-2.323 9.192-13.337 17.024-10.847 18.494 3.182 1.878 11.195-7.302 14.106-12.634.764-1.4-9.88 15.871-7.444 16.541 2.376.653 11.195-12.235 12.36-18.122.541-2.742-7.6 16.24-5.905 18.033 2.393 2.534 9.168-17.437 9.354-18.684.123-.83-5.163 17.425-4.36 17.08 3.28-.89 7.772-11.059 5.83-19.71-1.184-5.274-1.805-9.201-1.75-13.912zM122.99 86.462c7.097-9.089 11.465-21.686 24.6-23.013l.927-.714 12.51-6.279c18.715-5.822 30.99 3.813 45.427 8.26L191.45 75.455c-10.555 4.04-20.14 5.373-29.788-6.887-6.075 15.209-18.081 20.78-31.588 23.912 7.261 7.568 7.652 4.743 7.584 11.85-.024 2.505-2.616 7.066-5.329 6.538-1.83-.356-.888-1.291-.075-2.553.813-1.262 1.495-2.85-.856-4.513-4.64-5.093-3.603-4.667-6.384-5.218-4.62-.916-6.268-.18-10.784 2.67-8.018 5.06-12.047 17.96-14.217 16.048-2.773-2.442 3.47-12.908 7.635-17.328 1.094-1.161-12.024 14.315-13.416 12.207-1.357-2.056 8.16-14.438 13.395-17.37 2.439-1.367-13.081 12.26-15.312 11.206-3.152-1.49 13.733-14.125 14.86-14.688.75-.375-14.964 10.313-14.884 9.442-.171-3.394 8.102-10.819 16.93-11.655 5.38-.51 9.306-1.138 13.768-2.653z" style="fill:#f95;stroke-width:12.2534"/><path d="M182.034 53.596c26.25 5.155 53.199 8.304 72.208 34.278-14.486 22.834-29.965 45.073-49.1 65.118l-53.234-25.494c8.875-24.634 15.187-49.268 30.126-73.902z" style="fill:#fff;stroke-width:18.8976"/><ellipse cx="227.675" cy="-7.241" rx="23.979" ry="27.756" style="fill:#f95;stroke-width:18.0876" transform="scale(1 -1) rotate(-15.982)"/><ellipse cx="216.55" cy="-27.225" rx="3.337" ry="2.494" style="fill:#483e37;stroke-width:11.414" transform="matrix(.90654 .42212 -.35975 .93305 0 0)"/><ellipse cx="240.296" cy="-30.014" rx="3.337" ry="2.494" style="fill:#483e37;stroke-width:11.414" transform="matrix(.90654 .42212 -.35975 .93305 0 0)"/><path d="M204.055-25.046h46.718v22.847h-46.718z" style="fill:#fff;stroke-width:18.8873" transform="matrix(.96146 .27495 -.42169 .90674 0 0)"/><path d="M213.668 176.238c13 .702-160.69 27.301-160.69 27.301.538-33.952 23.97-66.65 59.251-89.702 20.128-13.152 63.713 20.724 92.941 18.26 24.976 1.192 8.713 12.335 8.498 44.14z" style="fill:#e3dbdb;stroke-width:16.4348"/><path d="M198.793 77.053c4.923 5.27 12.035 14.148 29.634 8.659l-1.103 1.306c-8.618 3.118-17.85 4.452-26.805-6.736z" style="fill:#483e37;stroke-width:17.9442"/></svg>